<svg width="173" height="81" viewBox="0 0 173 81" fill="none" xmlns="http://www.w3.org/2000/svg">
<path d="M0 16C0 7.16344 7.16344 0 16 0C24.8366 0 32 7.16344 32 16C32 24.8366 24.8366 32 16 32C7.16344 32 0 24.8366 0 16Z" fill="#09A129"/>
<path d="M19.8502 14.45H18.4502H17.9502V13.95V12.4V11.9H18.4502H19.5002C19.7752 11.9 20.0002 11.7 20.0002 11.4V8.75C20.0002 8.475 19.8002 8.25 19.5002 8.25H17.6752C15.7002 8.25 14.3252 9.65 14.3252 11.725V13.9V14.4H13.8252H12.1252C11.7752 14.4 11.4502 14.675 11.4502 15.075V16.875C11.4502 17.225 11.7252 17.55 12.1252 17.55H13.7752H14.2752V18.05V23.075C14.2752 23.425 14.5502 23.75 14.9502 23.75H17.3002C17.4502 23.75 17.5752 23.675 17.6752 23.575C17.7752 23.475 17.8502 23.3 17.8502 23.15V18.075V17.575H18.3752H19.5002C19.8252 17.575 20.0752 17.375 20.1252 17.075V17.05V17.025L20.4752 15.3C20.5002 15.125 20.4752 14.925 20.3252 14.725C20.2752 14.6 20.0502 14.475 19.8502 14.45Z" fill="white"/>
<path d="M63 0.5C71.5604 0.5 78.5 7.43959 78.5 16C78.5 24.5604 71.5604 31.5 63 31.5C54.4396 31.5 47.5 24.5604 47.5 16C47.5 7.43959 54.4396 0.5 63 0.5Z" fill="#043601" stroke="white"/>
<path d="M69.6354 12.3001C69.7245 12.1962 69.6083 12.0605 69.4764 12.1091C69.1822 12.2176 68.9132 12.2892 68.5155 12.3334C69.0047 12.061 69.2322 11.6717 69.4173 11.1948C69.4619 11.0798 69.3273 10.9754 69.2114 11.0304C68.7405 11.2536 68.2324 11.4193 67.6982 11.5171C67.1701 10.9938 66.4174 10.6667 65.5847 10.6667C63.9858 10.6667 62.6892 11.8726 62.6892 13.3595C62.6892 13.5706 62.715 13.7762 62.7638 13.9731C60.4654 13.866 58.4159 12.8828 56.992 11.3752C56.8944 11.2718 56.7173 11.2855 56.6566 11.4116C56.4945 11.7478 56.4041 12.1208 56.4041 12.5135C56.4041 13.4476 56.9151 14.2717 57.6919 14.7546C57.3436 14.7441 57.0105 14.6763 56.7036 14.5611C56.5541 14.505 56.3828 14.6036 56.4029 14.7543C56.557 15.9115 57.494 16.8663 58.7034 17.0919C58.4605 17.1537 58.2047 17.1865 57.9401 17.1865C57.8759 17.1865 57.8123 17.1845 57.7493 17.1806C57.5889 17.1707 57.4586 17.3141 57.5273 17.4514C57.981 18.3569 58.9606 18.989 60.1006 19.0087C59.1097 19.7311 57.8613 20.1615 56.5047 20.1615C56.3374 20.1615 56.2656 20.3765 56.414 20.4495C57.5602 21.0129 58.8654 21.3334 60.2523 21.3334C65.5782 21.3334 68.4902 17.2303 68.4902 13.6718C68.4902 13.5553 68.4873 13.4388 68.482 13.3234C68.9143 13.033 69.3029 12.6877 69.6354 12.3001Z" fill="white"/>
<path d="M109.886 0.5C118.383 0.5 125.272 7.38839 125.272 15.8857C125.272 24.3833 118.383 31.2725 109.886 31.2725C101.388 31.2722 94.5 24.3831 94.5 15.8857C94.5002 7.38853 101.389 0.500225 109.886 0.5Z" fill="#043601" stroke="white"/>
<path d="M117.425 12.275C117.25 11.6 116.725 11.075 116.05 10.9C114.85 10.575 110 10.575 110 10.575C110 10.575 105.15 10.575 103.95 10.9C103.275 11.075 102.75 11.6 102.575 12.275C102.25 13.5 102.25 16 102.25 16C102.25 16 102.25 18.525 102.575 19.725C102.75 20.4 103.275 20.925 103.95 21.1C105.15 21.425 110 21.4249 110 21.4249C110 21.4249 114.85 21.425 116.05 21.1C116.725 20.925 117.25 20.4 117.425 19.725C117.75 18.525 117.75 16 117.75 16C117.75 16 117.75 13.5 117.425 12.275ZM108.45 18.325V13.675L112.475 16L108.45 18.325Z" fill="white"/>
<path d="M156.658 0.5C165.155 0.5 172.045 7.38839 172.045 15.8857C172.045 24.3833 165.156 31.2725 156.658 31.2725C148.161 31.2722 141.272 24.3831 141.272 15.8857C141.273 7.38853 148.161 0.500225 156.658 0.5Z" fill="#043601" stroke="white"/>
<path d="M153.627 11.3333C153.626 11.6869 153.486 12.026 153.236 12.2759C152.985 12.5258 152.646 12.6661 152.293 12.6659C151.939 12.6658 151.6 12.5251 151.35 12.2749C151.1 12.0248 150.96 11.6856 150.96 11.3319C150.96 10.9783 151.101 10.6392 151.351 10.3893C151.601 10.1394 151.94 9.99909 152.294 9.99927C152.647 9.99944 152.987 10.1401 153.236 10.3903C153.486 10.6404 153.627 10.9796 153.627 11.3333V11.3333ZM153.667 13.6533H151V21.9999H153.667V13.6533ZM157.88 13.6533H155.227V21.9999H157.853V17.6199C157.853 15.1799 161.033 14.9533 161.033 17.6199V21.9999H163.667V16.7133C163.667 12.5999 158.96 12.7533 157.853 14.7733L157.88 13.6533V13.6533Z" fill="white"/>
<path d="M4 69.1818C4 68.5606 4.15152 67.9943 4.45455 67.483C4.75758 66.9716 5.16477 66.5644 5.67614 66.2614C6.1875 65.9583 6.75379 65.8068 7.375 65.8068C7.91288 65.8068 8.40909 65.9223 8.86364 66.1534C9.32197 66.3845 9.70076 66.7008 10 67.1023C10.2992 67.5 10.4848 67.9508 10.5568 68.4545H9.18182C9.10606 68.0644 8.89583 67.7462 8.55114 67.5C8.20644 67.25 7.81439 67.125 7.375 67.125C6.99621 67.125 6.65152 67.2178 6.34091 67.4034C6.0303 67.589 5.7822 67.8371 5.59659 68.1477C5.41098 68.4583 5.31818 68.803 5.31818 69.1818C5.31818 69.5606 5.41098 69.9053 5.59659 70.2159C5.7822 70.5265 6.0303 70.7746 6.34091 70.9602C6.65152 71.1458 6.99621 71.2386 7.375 71.2386C7.81439 71.2386 8.18561 71.1155 8.48864 70.8693C8.79545 70.6193 8.98864 70.2992 9.06818 69.9091H10.4432C10.3712 70.4129 10.1951 70.8655 9.91477 71.267C9.63447 71.6648 9.27462 71.9792 8.83523 72.2102C8.39962 72.4413 7.91288 72.5568 7.375 72.5568C6.75379 72.5568 6.1875 72.4053 5.67614 72.1023C5.16477 71.7992 4.75758 71.392 4.45455 70.8807C4.15152 70.3693 4 69.803 4 69.1818ZM7.31818 75.1818C6.49242 75.1818 5.71591 75.0265 4.98864 74.7159C4.26515 74.4053 3.62689 73.9754 3.07386 73.4261C2.52462 72.8731 2.0928 72.2348 1.77841 71.5114C1.4678 70.7879 1.31439 70.0114 1.31818 69.1818C1.32197 68.3523 1.47917 67.5758 1.78977 66.8523C2.10417 66.1288 2.53598 65.4924 3.08523 64.9432C3.63447 64.3902 4.27083 63.9583 4.99432 63.6477C5.7178 63.3371 6.49242 63.1818 7.31818 63.1818C8.14773 63.1818 8.92424 63.3371 9.64773 63.6477C10.375 63.9583 11.0114 64.3902 11.5568 64.9432C12.1061 65.4924 12.536 66.1288 12.8466 66.8523C13.1572 67.5758 13.3144 68.3523 13.3182 69.1818C13.322 70.0114 13.1686 70.7879 12.858 71.5114C12.5473 72.2348 12.1174 72.8731 11.5682 73.4261C11.0189 73.9754 10.3807 74.4053 9.65341 74.7159C8.92614 75.0265 8.14773 75.1818 7.31818 75.1818ZM7.31818 73.8636C7.96591 73.8636 8.57386 73.7424 9.14205 73.5C9.71023 73.2576 10.2083 72.9223 10.6364 72.4943C11.0644 72.0663 11.3996 71.5701 11.642 71.0057C11.8845 70.4375 12.0038 69.8314 12 69.1875C11.9962 68.5398 11.8731 67.9318 11.6307 67.3636C11.3883 66.7955 11.053 66.2973 10.625 65.8693C10.197 65.4413 9.70076 65.1061 9.13636 64.8636C8.57197 64.6212 7.96591 64.5 7.31818 64.5C6.67424 64.5 6.07008 64.6212 5.50568 64.8636C4.94129 65.1061 4.44508 65.4432 4.01705 65.875C3.58902 66.303 3.25189 66.8011 3.00568 67.3693C2.76326 67.9337 2.64015 68.5398 2.63636 69.1875C2.63258 69.8277 2.75189 70.4318 2.99432 71C3.23674 71.5644 3.57197 72.0606 4 72.4886C4.43182 72.9167 4.92992 73.2538 5.49432 73.5C6.0625 73.7424 6.67045 73.8636 7.31818 73.8636ZM20.3452 75V73.9773L24.1861 69.7727C24.6368 69.2803 25.008 68.8523 25.2997 68.4886C25.5914 68.1212 25.8073 67.7765 25.9474 67.4545C26.0914 67.1288 26.1634 66.7879 26.1634 66.4318C26.1634 66.0227 26.0649 65.6686 25.8679 65.3693C25.6747 65.0701 25.4096 64.839 25.0724 64.6761C24.7353 64.5133 24.3565 64.4318 23.9361 64.4318C23.4891 64.4318 23.099 64.5246 22.7656 64.7102C22.4361 64.892 22.1804 65.1477 21.9986 65.4773C21.8205 65.8068 21.7315 66.1932 21.7315 66.6364H20.3906C20.3906 65.9545 20.5478 65.3561 20.8622 64.8409C21.1766 64.3258 21.6046 63.9242 22.1463 63.6364C22.6918 63.3485 23.3035 63.2045 23.9815 63.2045C24.6634 63.2045 25.2675 63.3485 25.794 63.6364C26.3205 63.9242 26.7334 64.3125 27.0327 64.8011C27.3319 65.2898 27.4815 65.8333 27.4815 66.4318C27.4815 66.8598 27.4039 67.2784 27.2486 67.6875C27.0971 68.0928 26.8319 68.5455 26.4531 69.0455C26.0781 69.5417 25.5573 70.1477 24.8906 70.8636L22.277 73.6591V73.75H27.6861V75H20.3452ZM33.8281 75.1591C32.9721 75.1591 32.2429 74.9261 31.6406 74.4602C31.0384 73.9905 30.5781 73.3106 30.2599 72.4205C29.9418 71.5265 29.7827 70.447 29.7827 69.1818C29.7827 67.9242 29.9418 66.8504 30.2599 65.9602C30.5819 65.0663 31.044 64.3845 31.6463 63.9148C32.2524 63.4413 32.9796 63.2045 33.8281 63.2045C34.6766 63.2045 35.402 63.4413 36.0043 63.9148C36.6103 64.3845 37.0724 65.0663 37.3906 65.9602C37.7126 66.8504 37.8736 67.9242 37.8736 69.1818C37.8736 70.447 37.7145 71.5265 37.3963 72.4205C37.0781 73.3106 36.6179 73.9905 36.0156 74.4602C35.4134 74.9261 34.6842 75.1591 33.8281 75.1591ZM33.8281 73.9091C34.6766 73.9091 35.3357 73.5 35.8054 72.6818C36.2751 71.8636 36.5099 70.697 36.5099 69.1818C36.5099 68.1742 36.402 67.3163 36.1861 66.608C35.974 65.8996 35.6671 65.3598 35.2656 64.9886C34.8679 64.6174 34.3887 64.4318 33.8281 64.4318C32.9872 64.4318 32.33 64.8466 31.8565 65.6761C31.383 66.5019 31.1463 67.6705 31.1463 69.1818C31.1463 70.1894 31.2524 71.0455 31.4645 71.75C31.6766 72.4545 31.9815 72.9905 32.3793 73.358C32.7808 73.7254 33.2637 73.9091 33.8281 73.9091ZM40.0327 75V73.9773L43.8736 69.7727C44.3243 69.2803 44.6955 68.8523 44.9872 68.4886C45.2789 68.1212 45.4948 67.7765 45.6349 67.4545C45.7789 67.1288 45.8509 66.7879 45.8509 66.4318C45.8509 66.0227 45.7524 65.6686 45.5554 65.3693C45.3622 65.0701 45.0971 64.839 44.7599 64.6761C44.4228 64.5133 44.044 64.4318 43.6236 64.4318C43.1766 64.4318 42.7865 64.5246 42.4531 64.7102C42.1236 64.892 41.8679 65.1477 41.6861 65.4773C41.508 65.8068 41.419 66.1932 41.419 66.6364H40.0781C40.0781 65.9545 40.2353 65.3561 40.5497 64.8409C40.8641 64.3258 41.2921 63.9242 41.8338 63.6364C42.3793 63.3485 42.991 63.2045 43.669 63.2045C44.3509 63.2045 44.955 63.3485 45.4815 63.6364C46.008 63.9242 46.4209 64.3125 46.7202 64.8011C47.0194 65.2898 47.169 65.8333 47.169 66.4318C47.169 66.8598 47.0914 67.2784 46.9361 67.6875C46.7846 68.0928 46.5194 68.5455 46.1406 69.0455C45.7656 69.5417 45.2448 70.1477 44.5781 70.8636L41.9645 73.6591V73.75H47.3736V75H40.0327ZM53.3565 75.1591C52.6899 75.1591 52.0895 75.0265 51.5554 74.7614C51.0213 74.4962 50.5933 74.1326 50.2713 73.6705C49.9493 73.2083 49.7732 72.6818 49.7429 72.0909H51.1065C51.1596 72.6174 51.3982 73.053 51.8224 73.3977C52.2505 73.7386 52.7618 73.9091 53.3565 73.9091C53.8338 73.9091 54.258 73.7973 54.6293 73.5739C55.0043 73.3504 55.2978 73.0436 55.5099 72.6534C55.7259 72.2595 55.8338 71.8144 55.8338 71.3182C55.8338 70.8106 55.7221 70.358 55.4986 69.9602C55.2789 69.5587 54.9759 69.2424 54.5895 69.0114C54.2031 68.7803 53.7618 68.6629 53.2656 68.6591C52.9096 68.6553 52.544 68.7102 52.169 68.8239C51.794 68.9337 51.4853 69.0758 51.2429 69.25L49.9247 69.0909L50.6293 63.3636H56.6747V64.6136H51.8111L51.402 68.0455H51.4702C51.7088 67.8561 52.008 67.6989 52.3679 67.5739C52.7277 67.4489 53.1027 67.3864 53.4929 67.3864C54.205 67.3864 54.8395 67.5568 55.3963 67.8977C55.9569 68.2348 56.3963 68.697 56.7145 69.2841C57.0365 69.8712 57.1974 70.5417 57.1974 71.2955C57.1974 72.0379 57.0308 72.7008 56.6974 73.2841C56.3679 73.8636 55.9134 74.322 55.3338 74.6591C54.7543 74.9924 54.0952 75.1591 53.3565 75.1591ZM64.1591 75V63.3636H68.0909C69.0038 63.3636 69.75 63.5284 70.3295 63.858C70.9129 64.1837 71.3447 64.625 71.625 65.1818C71.9053 65.7386 72.0455 66.3598 72.0455 67.0455C72.0455 67.7311 71.9053 68.3542 71.625 68.9148C71.3485 69.4754 70.9205 69.9223 70.3409 70.2557C69.7614 70.5852 69.0189 70.75 68.1136 70.75H65.2955V69.5H68.0682C68.6932 69.5 69.1951 69.392 69.5739 69.1761C69.9527 68.9602 70.2273 68.6686 70.3977 68.3011C70.572 67.9299 70.6591 67.5114 70.6591 67.0455C70.6591 66.5795 70.572 66.1629 70.3977 65.7955C70.2273 65.428 69.9508 65.1402 69.5682 64.9318C69.1856 64.7197 68.678 64.6136 68.0455 64.6136H65.5682V75H64.1591ZM76.429 75L73.2472 63.3636H74.679L77.1108 72.8409H77.2244L79.7017 63.3636H81.2926L83.7699 72.8409H83.8835L86.3153 63.3636H87.7472L84.5653 75H83.1108L80.5426 65.7273H80.4517L77.8835 75H76.429ZM90.9119 63.3636V75H89.5028V63.3636H90.9119ZM95.1463 63.3636V75H93.7372V63.3636H95.1463ZM98.767 75.0909C98.4867 75.0909 98.2462 74.9905 98.0455 74.7898C97.8447 74.589 97.7443 74.3485 97.7443 74.0682C97.7443 73.7879 97.8447 73.5473 98.0455 73.3466C98.2462 73.1458 98.4867 73.0455 98.767 73.0455C99.0473 73.0455 99.2879 73.1458 99.4886 73.3466C99.6894 73.5473 99.7898 73.7879 99.7898 74.0682C99.7898 74.2538 99.7424 74.4242 99.6477 74.5795C99.5568 74.7348 99.4337 74.8598 99.2784 74.9545C99.1269 75.0455 98.9564 75.0909 98.767 75.0909Z" fill="white"/>
</svg>
